# xmcd
#
# Track frame offsets: 
#        150
#        18322
#        36761
#        51278
#        81558
#        103574
#        124966
#        145185
#        159861
#        179947
#        191107
#        209087
#        235770
#
# Disc length: 3533 seconds
#
# Revision: 2
# Processed by: cddbd v1.5.2PL0 Copyright (c) Steve Scherf et al.
# Submitted via: ExactAudioCopyFreeDBPlugin 1.0
#
DISCID=bf0dcb0d
DTITLE=Various Artist - 12 Years Of Where Blues Crosses Over
DYEAR=2006
DGENRE=Blues
TTITLE0=Walter Trout and Jeff Healey - Workin´ Overtime
TTITLE1=Sue Foley - New Used Car
TTITLE2=Candye Cane - White Trash Girl
TTITLE3=Ian Parker - It Hurts A Man
TTITLE4=Omar and The Howlers - White Crosses
TTITLE5=Larry Garner - Where The Blues Turn Black
TTITLE6=Ana Popovic - Love Fever
TTITLE7=Kevin Coyne - Whispering Desert
TTITLE8=Aynsley Lister - In The Beginning
TTITLE9=Canned Heat - See These Tears
TTITLE10=Friend ´N Fellow - Home
TTITLE11=Bernard Allison - Live Together
TTITLE12=Luther Allison - Put Your Money Where Your Mouth Is
EXTD=
EXTT0=
EXTT1=
EXTT2=
EXTT3=
EXTT4=
EXTT5=
EXTT6=
EXTT7=
EXTT8=
EXTT9=
EXTT10=
EXTT11=
EXTT12=
PLAYORDER=
